# xmcd
#
# Track frame offsets:
#	150
#	13209
#	28706
#	44326
#	59976
#	76575
#	94545
#	108147
#	123154
#	140084
#	154938
#	167154
#	184490
#	201537
#	217131
#	244815
#	261261
#	276184
#	292731
#	307905
#	325108
#	343123
#
# Disc length: 4776 seconds
#
# Revision: 0
# Processed by: cddbd v1.5.2PL0 Copyright (c) Steve Scherf et al.
# Submitted via: audiograbber 1.83.01
#
DISCID=4d12a616
DTITLE=Various Artist - Radioactive Rock and Country - April 2013
DYEAR=2013
DGENRE=Rock
TTITLE0=Miranda Lambert - Mama's Broken Heart
TTITLE1=Linkin Park - Castle Of Glass
TTITLE2=Kacey Musgraves - Merry Go 'Round
TTITLE3=Fitz and The Tantrums - Out Of My League
TTITLE4=Phoenix - Entertainment
TTITLE5=Darius Rucker - Wagon Wheel
TTITLE6=Cold War Kids - Miracle Mile
TTITLE7=Michael Buble - It's A Beautiful Day
TTITLE8=Stone Sour - Do Me A Favor
TTITLE9=Rob Zombie - Dead City Radio and The New Gods Of Supertown
TTITLE10=New Politics - Harlem
TTITLE11=Yeah Yeah Yeahs - Sacrilege
TTITLE12=Biffy Clyro - Black Chandelier
TTITLE13=C2C - Down The Road
TTITLE14=Slash Feat. Myles Kennedy - Anastasia
TTITLE15=Pop Evil - Trenches
TTITLE16=Florida-George Line - Get Your Shine On
TTITLE17=Device - Vilify
TTITLE18=Alt-J - Breezeblocks
TTITLE19=Brantley Gibert - More Than Miles
TTITLE20=Brad Paisley - Beat This Summer
TTITLE21=Thompson Square - If I Didn't Have You
EXTD=
EXTT0=
EXTT1=
EXTT2=
EXTT3=
EXTT4=
EXTT5=
EXTT6=
EXTT7=
EXTT8=
EXTT9=
EXTT10=
EXTT11=
EXTT12=
EXTT13=
EXTT14=
EXTT15=
EXTT16=
EXTT17=
EXTT18=
EXTT19=
EXTT20=
EXTT21=
PLAYORDER=
